<svg xmlns="http://www.w3.org/2000/svg" viewBox="0 0 64 64" role="img" aria-label="ShorLahore">
  <defs>
    <linearGradient id="bg" x1="8" y1="6" x2="58" y2="60" gradientUnits="userSpaceOnUse">
      <stop stop-color="#111820" />
      <stop offset="1" stop-color="#0A0E13" />
    </linearGradient>
    <linearGradient id="teal" x1="18" y1="13" x2="47" y2="52" gradientUnits="userSpaceOnUse">
      <stop stop-color="#2DD4BF" />
      <stop offset="1" stop-color="#14B8A6" />
    </linearGradient>
    <filter id="softGlow" x="-30%" y="-30%" width="160%" height="160%">
      <feGaussianBlur stdDeviation="2.2" result="blur" />
      <feColorMatrix in="blur" type="matrix" values="0 0 0 0 0.176 0 0 0 0 0.831 0 0 0 0 0.749 0 0 0 0.75 0" />
      <feBlend in="SourceGraphic" />
    </filter>
  </defs>

  <rect width="64" height="64" rx="16" fill="url(#bg)" />
  <rect x="1" y="1" width="62" height="62" rx="15" fill="none" stroke="#243040" stroke-width="2" />
  <path d="M32 55C28.4 49.8 21 40.8 21 31.4C21 24.7 25.9 19 32 19C38.1 19 43 24.7 43 31.4C43 40.8 35.6 49.8 32 55Z" fill="url(#teal)" filter="url(#softGlow)" />
  <circle cx="32" cy="31" r="5.8" fill="#0A0E13" />
  <circle cx="32" cy="31" r="3.1" fill="#2DD4BF" />
  <path d="M19.5 22.5C16.9 25.1 15.4 28.5 15.4 32.2C15.4 35.8 16.8 39.1 19.2 41.6" fill="none" stroke="#2DD4BF" stroke-width="3" stroke-linecap="round" opacity="0.72" />
  <path d="M44.5 22.5C47.1 25.1 48.6 28.5 48.6 32.2C48.6 35.8 47.2 39.1 44.8 41.6" fill="none" stroke="#2DD4BF" stroke-width="3" stroke-linecap="round" opacity="0.72" />
  <path d="M13 18.5C9.6 22.1 7.6 26.9 7.6 32.1C7.6 37.2 9.5 41.9 12.8 45.5" fill="none" stroke="#F472B6" stroke-width="2.4" stroke-linecap="round" opacity="0.5" />
  <path d="M51 18.5C54.4 22.1 56.4 26.9 56.4 32.1C56.4 37.2 54.5 41.9 51.2 45.5" fill="none" stroke="#F472B6" stroke-width="2.4" stroke-linecap="round" opacity="0.5" />
</svg>
